<svg width="320" height="25" viewBox="0 0 320 25" fill="none" xmlns="http://www.w3.org/2000/svg">
<path fill-rule="evenodd" clip-rule="evenodd" d="M320 18.1358L309.333 15.2708C298.667 12.4057 277.333 6.67562 256 3.21369C234.667 -0.188554 213.333 -1.38232 192 2.07961C170.667 5.54154 149.333 13.5398 128 17.5389C106.667 21.5381 85.3333 21.5381 64 19.8668C42.6667 18.1358 21.3333 14.6739 10.6667 12.9429L0 11.2716V25H10.6667C21.3333 25 42.6667 25 64 25C85.3333 25 106.667 25 128 25C149.333 25 170.667 25 192 25C213.333 25 234.667 25 256 25C277.333 25 298.667 25 309.333 25H320V18.1358Z" fill="white"/>
</svg>
