<svg width="79" height="76" viewBox="0 0 79 76" fill="none" xmlns="http://www.w3.org/2000/svg">
<path d="M12.3555 43.8425C11.4899 40.7019 9.8751 38.0272 7.26793 35.9695C7.16478 35.8103 7.00262 35.6984 6.81704 35.6585C6.63145 35.6186 6.4376 35.6538 6.278 35.7565L0.327188 39.5956C0.167822 39.6987 0.0558815 39.8607 0.0159245 40.0461C-0.0240335 40.2316 0.011261 40.4252 0.114054 40.5847L5.20166 48.4577C5.30482 48.6169 5.46698 48.7288 5.65256 48.7687C5.83814 48.8086 6.032 48.7733 6.1916 48.6706L12.1424 44.8316C12.3018 44.7285 12.4137 44.5665 12.4537 44.3811C12.4936 44.1956 12.4583 44.0019 12.3555 43.8425Z" fill="#F2F2F2"/>
<path d="M10.3625 41.759C10.1395 40.0997 8.76563 38.4034 7.09175 36.6975C6.99514 36.5484 6.84328 36.4437 6.66948 36.4063C6.49567 36.3689 6.31411 36.4019 6.16465 36.4981L1.05043 39.7974C0.901173 39.894 0.79633 40.0457 0.758904 40.2194C0.721477 40.393 0.754515 40.5744 0.850781 40.7238L5.37807 47.7297C5.47469 47.8788 5.62655 47.9835 5.80036 48.0209C5.97417 48.0583 6.15573 48.0253 6.3052 47.9291L9.47336 45.8852C10.1382 45.4552 10.6052 44.7793 10.7719 44.0058C10.9386 43.2322 10.7913 42.4242 10.3625 41.759Z" fill="white"/>
<path d="M9.90663 48.5246C10.6618 45.3557 10.5358 42.2346 9.24278 39.1766C9.22913 38.9875 9.14093 38.8114 8.99753 38.6871C8.85413 38.5628 8.66724 38.5004 8.47787 38.5136L1.41218 39.0146C1.22284 39.0282 1.04664 39.1163 0.92224 39.2596C0.797844 39.4029 0.735412 39.5896 0.748634 39.7789L1.41249 49.1268C1.42614 49.316 1.51433 49.492 1.65773 49.6163C1.80113 49.7406 1.98802 49.803 2.1774 49.7898L9.24307 49.2889C9.43242 49.2752 9.60863 49.1871 9.73302 49.0438C9.85742 48.9005 9.91985 48.7138 9.90663 48.5246Z" fill="#F2F2F2"/>
<path d="M9.16348 45.7395C9.7678 44.178 9.38141 42.0303 8.7367 39.7298C8.72392 39.5526 8.64132 39.3878 8.50702 39.2714C8.37272 39.1549 8.19769 39.0965 8.02033 39.1089L1.94798 39.5394C1.77065 39.5522 1.60562 39.6347 1.48911 39.7689C1.37261 39.9031 1.31413 40.078 1.32651 40.2552L1.91724 48.5736C1.93003 48.7508 2.01264 48.9156 2.14695 49.032C2.28125 49.1484 2.45628 49.2069 2.63364 49.1945L6.39534 48.9278C7.18522 48.8709 7.92028 48.5033 8.43922 47.9056C8.95817 47.3079 9.21864 46.5289 9.16348 45.7395Z" fill="white"/>
<path d="M9.29721 28.9621L12.3242 17.7677C12.4538 17.2938 12.7648 16.8898 13.1899 16.643C13.615 16.3961 14.1202 16.3262 14.5965 16.4482C14.8429 16.5113 15.0738 16.6239 15.2752 16.7792C15.4766 16.9344 15.6443 17.129 15.768 17.351C15.8917 17.5731 15.9688 17.818 15.9947 18.0709C16.0205 18.3237 15.9946 18.5791 15.9185 18.8216L12.4173 30.3536L10.5856 37.4505C10.8524 37.654 11.05 37.9347 11.1516 38.2544C11.2531 38.574 11.2538 38.9172 11.1534 39.2372C11.053 39.5572 10.8564 39.8386 10.5904 40.0431C10.3243 40.2476 10.0017 40.3654 9.66641 40.3803C9.33108 40.3953 8.99927 40.3067 8.71607 40.1267C8.43286 39.9467 8.21199 39.6839 8.08345 39.3741C7.95492 39.0642 7.92496 38.7224 7.99765 38.395C8.07033 38.0675 8.24214 37.7704 8.48972 37.5439L9.29721 28.9621Z" fill="#FFB6B6"/>
<path d="M31.1274 30.8988L28.0231 19.7254C27.893 19.2517 27.9546 18.7458 28.1945 18.3169C28.4344 17.8881 28.8334 17.5707 29.3054 17.4332C29.5496 17.3621 29.8058 17.3414 30.0582 17.3725C30.3107 17.4035 30.5542 17.4855 30.7739 17.6136C30.9936 17.7418 31.1848 17.9132 31.336 18.1176C31.4872 18.322 31.5952 18.555 31.6533 18.8024L34.5217 30.5075L36.5647 37.5466C36.8981 37.5859 37.2112 37.7268 37.4617 37.9501C37.7121 38.1735 37.8876 38.4684 37.9644 38.7949C38.0412 39.1214 38.0156 39.4636 37.891 39.775C37.7664 40.0864 37.5489 40.3519 37.2679 40.5355C36.987 40.7191 36.6564 40.8118 36.3209 40.8011C35.9854 40.7904 35.6613 40.6767 35.3927 40.4756C35.1241 40.2745 34.924 39.9956 34.8196 39.6768C34.7152 39.3581 34.7115 39.015 34.809 38.694L31.1274 30.8988Z" fill="#FFB6B6"/>
<path d="M13.3631 73.8187L15.3413 73.8185L16.2822 66.1953L13.3628 66.1954L13.3631 73.8187Z" fill="#FFB6B6"/>
<path d="M13.2942 75.8805L19.377 75.8802V75.8034C19.3769 75.176 19.1275 74.5743 18.6835 74.1307C18.2395 73.6871 17.6373 73.4378 17.0094 73.4378H17.0092L15.8981 72.5956L13.8251 73.4379L13.2941 73.438L13.2942 75.8805Z" fill="#333339"/>
<path d="M27.2836 73.8386L29.231 73.4915L28.8181 65.8213L25.944 66.3336L27.2836 73.8386Z" fill="#FFB6B6"/>
<path d="M27.5766 75.8805L33.5649 74.8135L33.5514 74.7378C33.4412 74.1202 33.0899 73.5716 32.5749 73.2127C32.0598 72.8539 31.4232 72.7141 30.805 72.8242L30.8049 72.8242L29.5631 72.1899L27.6702 73.3828L27.1474 73.4759L27.5766 75.8805Z" fill="#333339"/>
<path d="M27.0911 38.7677C27.0911 38.7677 28.9346 41.3767 28.8595 42.2522C28.7844 43.1277 28.1333 42.4293 28.7843 43.1277C29.4354 43.8261 29.8147 43.3576 29.4949 44.2204C29.175 45.0833 29.0448 44.5246 29.175 45.0833C29.3052 45.6421 29.0448 67.0142 29.0448 67.0142H25.6548C25.6548 67.0142 23.743 54.6217 23.985 54.0431C24.227 53.4646 24.2215 53.7164 23.9638 53.1016C23.7062 52.4867 23.4637 51.7553 23.4637 51.7553L20.7842 44.2205L18.7173 54.8294L16.2843 67.4359H13.0356C13.0356 67.4359 12.4793 48.8978 12.2334 48.6668C11.9874 48.4358 12.2817 47.9167 12.5903 47.6175C12.8989 47.3183 12.8374 47.0145 12.7379 46.3982C12.6385 45.7818 12.2189 45.438 12.2334 45.0511C12.2478 44.6643 11.3364 38.518 12.7687 37.5402C14.201 36.5624 27.0911 38.7677 27.0911 38.7677Z" fill="#333339"/>
<path d="M15.7564 12.7803L19.5484 11.7985L21.3184 9.35919L25.5221 9.87553L26.417 13.2028L29.4097 14.9385C24.045 14.9705 26.934 30.4994 26.1455 31.5013C25.5038 32.3167 29.3482 34.2563 28.1433 35.4936C26.9385 36.7309 27.384 36.2358 27.6636 37.5829C27.9431 38.93 29.9812 40.3556 27.6636 40.3414C25.3459 40.3273 11.3611 40.1277 11.7607 38.5308C12.1602 36.9338 12.154 37.3393 12.7565 36.3381C13.359 35.3369 13.7644 35.8964 13.5617 34.419C13.359 32.9415 14.0175 31.7988 13.5587 31.145C12.8546 30.1414 13.5642 22.8974 14.2281 23.0907L15.7564 12.7803Z" fill="#673BE4"/>
<path d="M16.8394 12.8321C16.8394 12.8321 14.0655 11.6546 13.0666 13.8504C12.7476 14.5517 12.4789 16.3133 12.2201 15.9226C11.9612 15.532 12.211 16.3884 12.0507 16.3894C11.9077 16.3904 11.6878 16.1592 11.854 16.9555C11.9061 17.2167 11.8911 17.4869 11.8105 17.7407C11.7298 17.9946 11.5862 18.2239 11.3929 18.4073L16.2139 21.2922L16.8394 12.8321Z" fill="#673BE4"/>
<path d="M27.2606 14.8283C27.2606 14.8283 30.0344 13.6508 31.0334 15.8466C31.3143 16.4642 31.2444 17.8363 31.7915 17.6823C32.3385 17.5282 31.9502 18.1086 32.0223 18.3103C32.1028 18.535 31.7516 19.171 32.2448 18.9485C32.7381 18.7259 32.7071 20.4035 32.7071 20.4035L27.8861 23.2884L27.2606 14.8283Z" fill="#673BE4"/>
<path d="M25.945 11.5397L26.7442 12.937C26.7442 12.937 28.9418 14.1347 28.9418 14.3344C28.9418 14.534 28.5422 16.1639 28.9418 17.4449C29.3413 18.7259 28.1791 21.135 27.9429 23.1175C26.9439 31.5013 29.9145 34.5476 30.54 39.8852L24.2005 41.7352C24.2005 41.7352 23.1481 27.7086 23.1481 24.5148C23.1481 21.3209 25.945 11.5397 25.945 11.5397Z" fill="#333339"/>
<path d="M20.1512 10.9409L18.518 11.869C18.518 11.869 16.3808 12.3398 16.3553 12.5378C16.3297 12.7358 16.3222 14.8399 15.7621 16.0594C15.202 17.279 15.3564 17.9274 13.848 21.5325C13.0774 23.3745 11.3081 38.1119 11.3081 38.1119L17.3593 40.7559C17.3593 40.7559 20.1962 26.9785 20.6045 23.8108C21.0128 20.6431 20.1512 10.9409 20.1512 10.9409Z" fill="#333339"/>
<path d="M24.2353 9.03773C21.9538 9.03773 20.1043 7.1898 20.1043 4.91025C20.1043 2.63071 21.9538 0.782776 24.2353 0.782776C26.5167 0.782776 28.3662 2.63071 28.3662 4.91025C28.3662 7.1898 26.5167 9.03773 24.2353 9.03773Z" fill="#FFB6B6"/>
<path d="M21.5176 8.11712C22.494 7.35449 21.1592 3.99962 22.7718 4.7157C22.7718 4.7157 24.7426 3.46255 25.1386 4.28605C25.5971 5.23958 27.2278 4.80701 28.2293 4.47044C28.1506 4.28762 28.0946 4.09582 28.0627 3.89936C28.2476 4.04491 28.4435 4.17599 28.6486 4.29142C28.7862 4.21798 28.9079 4.11822 29.0069 3.99782C29.1046 3.88602 29.1658 3.74702 29.1821 3.59949C29.1984 3.45196 29.1692 3.30297 29.0983 3.17253C28.9317 2.91653 28.5877 2.83776 28.3852 2.6104C28.3618 2.57843 28.3465 2.54127 28.3407 2.50209C28.3348 2.46292 28.3386 2.42292 28.3516 2.38551C28.3757 2.29403 28.3794 2.19837 28.3623 2.10532C28.3451 2.01228 28.3077 1.92415 28.2526 1.84722C28.1975 1.77028 28.1261 1.70643 28.0435 1.66022C27.9609 1.614 27.8691 1.58656 27.7747 1.57984C27.7367 1.581 27.699 1.5728 27.6649 1.55596C27.495 1.45201 27.338 1.32821 27.1973 1.18718C27.432 1.19792 27.145 -0.237625 24.8179 0.034272C24.232 0.0127913 23.9261 0.658412 23.3491 0.760456C21.9506 -0.0380077 20.7023 1.11378 20.0949 2.21476C19.4875 3.31575 18.83 6.86397 21.5176 8.11712Z" fill="#2F2E41"/>
<path d="M39.143 2.19595H76.1727C76.8772 2.19654 77.5527 2.47632 78.0509 2.9739C78.5492 3.47148 78.8296 4.14624 78.8306 4.85012V38.1889C78.8297 38.893 78.5493 39.5679 78.0511 40.0657C77.5528 40.5636 76.8773 40.8437 76.1727 40.8446H39.143C38.4386 40.8436 37.7632 40.5634 37.2652 40.0656C36.7672 39.5677 36.4872 38.8928 36.4866 38.1889V4.85012C36.4873 4.14639 36.7674 3.47166 37.2654 2.97405C37.7634 2.47644 38.4387 2.1966 39.143 2.19595Z" fill="#413956"/>
<path d="M55.868 8.13321H59.824C60.0183 8.13321 60.2047 8.05609 60.3421 7.91882C60.4795 7.78155 60.5566 7.59537 60.5566 7.40123C60.5566 7.2071 60.4795 7.02092 60.3421 6.88364C60.2047 6.74637 60.0183 6.66925 59.824 6.66925H55.868C55.6737 6.66925 55.4874 6.74637 55.35 6.88364C55.2126 7.02092 55.1354 7.2071 55.1354 7.40123C55.1354 7.59537 55.2126 7.78155 55.35 7.91882C55.4874 8.05609 55.6737 8.13321 55.868 8.13321Z" fill="#673BE4"/>
<path d="M3.60876 43.4797H7.56477C7.75907 43.4797 7.9454 43.4026 8.08279 43.2653C8.22018 43.128 8.29736 42.9418 8.29736 42.7477C8.29736 42.5536 8.22018 42.3674 8.08279 42.2301C7.9454 42.0928 7.75907 42.0157 7.56477 42.0157H3.60876C3.41447 42.0157 3.22812 42.0928 3.09073 42.2301C2.95335 42.3674 2.87617 42.5536 2.87617 42.7477C2.87617 42.9418 2.95335 43.128 3.09073 43.2653C3.22812 43.4026 3.41447 43.4797 3.60876 43.4797Z" fill="#673BE4"/>
<path d="M45.8061 25.1801H70.2747C70.469 25.1801 70.6554 25.103 70.7928 24.9658C70.9301 24.8285 71.0073 24.6423 71.0073 24.4482C71.0073 24.254 70.9301 24.0678 70.7928 23.9306C70.6554 23.7933 70.469 23.7162 70.2747 23.7162H45.8061C45.6118 23.7162 45.4255 23.7933 45.2881 23.9306C45.1507 24.0678 45.0735 24.254 45.0735 24.4482C45.0735 24.6423 45.1507 24.8285 45.2881 24.9658C45.4255 25.103 45.6118 25.1801 45.8061 25.1801Z" fill="#E6E6E6"/>
<path d="M45.8061 30.0112H70.2747C70.469 30.0112 70.6554 29.9341 70.7928 29.7968C70.9301 29.6596 71.0073 29.4734 71.0073 29.2793C71.0073 29.0851 70.9301 28.8989 70.7928 28.7617C70.6554 28.6244 70.469 28.5473 70.2747 28.5473H45.8061C45.6118 28.5473 45.4255 28.6244 45.2881 28.7617C45.1507 28.8989 45.0735 29.0851 45.0735 29.2793C45.0735 29.4734 45.1507 29.6596 45.2881 29.7968C45.4255 29.9341 45.6118 30.0112 45.8061 30.0112Z" fill="#E6E6E6"/>
<path d="M45.8061 34.8423H70.2747C70.469 34.8423 70.6554 34.7652 70.7928 34.6279C70.9301 34.4906 71.0073 34.3044 71.0073 34.1103C71.0073 33.9162 70.9301 33.73 70.7928 33.5927C70.6554 33.4554 70.469 33.3783 70.2747 33.3783H45.8061C45.6118 33.3783 45.4255 33.4554 45.2881 33.5927C45.1507 33.73 45.0735 33.9162 45.0735 34.1103C45.0735 34.3044 45.1507 34.4906 45.2881 34.6279C45.4255 34.7652 45.6118 34.8423 45.8061 34.8423Z" fill="#E6E6E6"/>
<path d="M50.808 12.044H65.2738C65.9783 12.0446 66.6537 12.3243 67.152 12.8219C67.6503 13.3195 67.9307 13.9943 67.9316 14.6981V19.0505C67.9307 19.7545 67.6504 20.4295 67.1522 20.9273C66.6539 21.4251 65.9784 21.7052 65.2738 21.7061H50.808C50.1035 21.7052 49.4282 21.425 48.9302 20.9271C48.4322 20.4293 48.1522 19.7544 48.1516 19.0505V14.6981C48.1523 13.9944 48.4323 13.3197 48.9304 12.8221C49.4284 12.3245 50.1037 12.0446 50.808 12.044ZM48.4446 19.0505C48.4446 19.6772 48.6938 20.2782 49.1373 20.7213C49.5808 21.1644 50.1823 21.4133 50.8095 21.4133H61.1937C62.903 21.4133 64.5423 20.7349 65.7509 19.5272C66.9596 18.3196 67.6386 16.6817 67.6386 14.9738V14.6981C67.6376 14.0719 67.3881 13.4717 66.9448 13.029C66.5015 12.5863 65.9005 12.3374 65.2738 12.3368H50.808C50.1814 12.3374 49.5807 12.5864 49.1376 13.0291C48.6945 13.4718 48.4453 14.0721 48.4446 14.6981V19.0505Z" fill="#413956"/>
<path d="M57.8788 18.4459C56.5032 18.4459 55.388 17.3317 55.388 15.9572C55.388 14.5827 56.5032 13.4684 57.8788 13.4684C59.2545 13.4684 60.3696 14.5827 60.3696 15.9572C60.3696 17.3317 59.2545 18.4459 57.8788 18.4459Z" fill="#E6E6E6"/>
<path d="M52.1483 21.7062L63.2998 21.6666L59.7834 20.7883L59.3453 19.3433L55.9739 19.3243L54.9644 20.7531L52.4149 21.4134L52.1834 21.4734L52.1483 21.7062Z" fill="#E6E6E6"/>
<path d="M59.2944 17.5462C58.7599 17.1288 59.4906 15.2924 58.6079 15.6843C58.6079 15.6843 57.5291 14.9984 57.3123 15.4492C57.0614 15.9711 56.1688 15.7343 55.6205 15.5501C55.6636 15.45 55.6943 15.345 55.7118 15.2375C55.6105 15.3172 55.5033 15.3889 55.3911 15.4521C55.3158 15.4119 55.2491 15.3573 55.1949 15.2914C55.1414 15.2302 55.108 15.1541 55.099 15.0734C55.0901 14.9926 55.1061 14.9111 55.1449 14.8397C55.2361 14.6995 55.4244 14.6564 55.5352 14.532C55.548 14.5145 55.5564 14.4941 55.5596 14.4727C55.5628 14.4512 55.5608 14.4293 55.5536 14.4089C55.5404 14.3588 55.5384 14.3064 55.5478 14.2555C55.5572 14.2046 55.5776 14.1563 55.6078 14.1142C55.6379 14.0721 55.677 14.0371 55.7222 14.0118C55.7675 13.9865 55.8177 13.9715 55.8694 13.9679C55.8902 13.9685 55.9108 13.964 55.9295 13.9548C56.0225 13.8979 56.1084 13.8301 56.1854 13.7529C56.057 13.7588 56.2141 12.973 57.4879 13.1218C57.8086 13.1101 57.9761 13.4635 58.2919 13.5193C59.0573 13.0823 59.7406 13.7127 60.0731 14.3154C60.4056 14.918 60.7655 16.8603 59.2944 17.5462Z" fill="#E6E6E6"/>
<path d="M39.143 2.19595H76.1727C76.8772 2.19654 77.5527 2.47632 78.0509 2.9739C78.5492 3.47148 78.8296 4.14624 78.8306 4.85012V38.1889C78.8297 38.893 78.5493 39.5679 78.0511 40.0657C77.5528 40.5636 76.8773 40.8437 76.1727 40.8446H39.143C38.4386 40.8436 37.7632 40.5634 37.2652 40.0656C36.7672 39.5677 36.4872 38.8928 36.4866 38.1889V4.85012C36.4873 4.14639 36.7674 3.47166 37.2654 2.97405C37.7634 2.47644 38.4387 2.1966 39.143 2.19595ZM36.7797 38.1889C36.7797 38.8156 37.0288 39.4166 37.4723 39.8597C37.9158 40.3028 38.5173 40.5518 39.1445 40.5518H59.4607C61.9659 40.5518 64.4466 40.0587 66.7611 39.1008C69.0756 38.1429 71.1786 36.7389 72.95 34.969C74.7215 33.199 76.1267 31.0977 77.0854 28.7852C78.0441 26.4726 78.5375 23.994 78.5375 21.4909V4.85012C78.5365 4.2239 78.287 3.62363 77.8437 3.18096C77.4004 2.73829 76.7995 2.48935 76.1727 2.48875H39.143C38.5164 2.48941 37.9157 2.73841 37.4726 3.18111C37.0296 3.62381 36.7803 4.22405 36.7797 4.85012V38.1889Z" fill="#413956"/>
</svg>
